<?xml version="1.0" encoding="UTF-8"?>
<svg id="Layer_2" data-name="Layer 2" xmlns="http://www.w3.org/2000/svg" viewBox="0 0 338.55 500">
  <defs>
    <style><![CDATA[
      path, polygon, rect {
        fill: none;
        stroke: #1c1e1d;
        stroke-width: 2px;
        stroke-dashoffset: 1;
      }
    ]]></style>
  </defs>
  <script type="text/javascript"><![CDATA[
    window.addEventListener('load', function() {
      var svg = document.documentElement;
      var allEls = Array.from(svg.querySelectorAll('path, polygon, rect'));
      var delays = [0, 0.12, 0.06, 0.18, 0.04];

      // Set correct dasharray/dashoffset per element, hidden
      allEls.forEach(function(el) {
        var len = el.getTotalLength ? Math.ceil(el.getTotalLength()) : 500;
        el.style.strokeDasharray  = len + 'px';
        el.style.strokeDashoffset = len + 'px';
        el.style.transition = 'none';
      });

      // Watch for is-animating on root <svg>
      var observer = new MutationObserver(function() {
        if (svg.classList.contains('is-animating')) {
          observer.disconnect();
          svg.getBoundingClientRect();
          allEls.forEach(function(el, i) {
            var delay = (delays[i] !== undefined ? delays[i] : i * 0.06);
            el.style.transition = 'stroke-dashoffset 2.5s cubic-bezier(0.65, 0, 0.2, 1) ' + delay + 's';
            el.style.strokeDashoffset = '0';
          });
        }
      });
      observer.observe(svg, { attributes: true, attributeFilter: ['class'] });
    });
  ]]></script>
  <g id="Layer_1-2" data-name="Layer 1">
    <g>
      <polygon points="25.69 361.66 28.08 376.46 30.32 376.1 27.93 361.3 36.18 359.97 38.66 375.29 40.93 374.92 38.46 359.6 38.46 359.6 38.45 359.56 38.19 357.96 38.19 357.96 38.05 357.12 14.62 360.9 14.76 361.74 14.76 361.74 17.5 378.71 19.77 378.34 17.3 363.02 25.69 361.66"/>
      <polygon points="45.64 397.01 47.82 396.29 40.9 375.37 38.72 376.09 41.79 385.37 21.44 392.1 22.23 394.49 42.58 387.76 45.64 397.01"/>
      <polygon points="38.14 405.5 45.04 418.8 47.05 417.76 40.15 404.45 47.57 400.6 54.72 414.38 56.76 413.32 48.85 398.06 48.85 398.06 48.46 397.31 27.39 408.24 28.55 410.47 28.55 410.47 35.69 424.25 37.74 423.19 30.59 409.41 38.14 405.5"/>
      <path d="M54.47,433.42l.14-.11c.92,1.17,1.92,2.03,3,2.58s2.18.79,3.33.71c1.14-.08,2.26-.53,3.34-1.33,1.18-.87,1.96-1.89,2.36-3.06.4-1.16.45-2.41.14-3.74-.31-1.33-.96-2.66-1.94-3.98l-6.93-9.33-19.06,14.15,1.5,2.02,7.8-5.78,3.04,4.1c.63.85,1.07,1.61,1.31,2.27s.33,1.3.27,1.91c-.06.62-.23,1.28-.52,2l-3.01,7.48,1.73,2.33,3.17-7.91c.31-.73.52-1.44.62-2.14.1-.69,0-1.42-.29-2.17ZM49.76,424.34l7.8-5.79,5.4,7.28c1.11,1.5,1.65,2.87,1.61,4.13-.04,1.25-.74,2.38-2.08,3.38-1.37,1.01-2.65,1.36-3.85,1.03-1.2-.33-2.36-1.25-3.47-2.74l-5.4-7.28Z"/>
      <polygon points="84.22 445.14 73.05 456.86 70.41 459.73 70.26 459.58 70.92 454.73 73.01 434.45 71.04 432.57 54.66 449.75 56.48 451.49 67.51 439.92 70.19 437 70.32 437.13 69.71 442.08 67.66 462.15 69.66 464.06 86.04 446.87 84.22 445.14"/>
      <path d="M73.46,467.32l2.31,1.52,6.49-4.08,10.9,7.19-1.18,7.58,2.37,1.56,4.08-25.75-2.93-1.93-22.03,13.91ZM95.67,456.42l-.6,3.29-1.53,9.77-9.18-6.05,8.37-5.26,2.76-1.87.18.12Z"/>
      <polygon points="110.69 462.43 108.39 461.41 98.72 483.09 101.02 484.11 101.02 484.11 114.77 490.24 115.71 488.14 101.96 482.01 110.69 462.43"/>
      <path d="M140.21,472.82l-15.41,21.01,2.7.57,4.55-6.17,12.78,2.7,1.67,7.49,2.77.59-5.63-25.45-3.43-.73ZM133.52,486.22l5.86-7.96,1.89-2.75.21.04.65,3.29,2.16,9.65-10.76-2.27Z"/>
      <polygon points="172.76 492.38 172.71 496.28 172.5 496.27 169.75 492.22 157.75 475.75 155.03 475.67 154.33 499.4 156.85 499.47 157.31 483.5 157.36 479.53 157.54 479.53 160.39 483.62 172.29 499.92 175.05 500 175.74 476.27 173.23 476.2 172.76 492.38"/>
      <path d="M199.67,478.59c-1.21-1.61-2.74-2.77-4.6-3.47-1.86-.7-3.97-.88-6.33-.52l-7.67,1.15h0s-2.52.38-2.52.38l3.51,23.48,1.05-.16h0s9.15-1.37,9.15-1.37c2.36-.35,4.33-1.14,5.9-2.35,1.57-1.21,2.7-2.77,3.39-4.66.68-1.89.85-4.04.49-6.45-.36-2.41-1.14-4.41-2.35-6.02ZM199.2,490.44c-.44,1.5-1.27,2.69-2.47,3.58-1.21.88-2.81,1.48-4.82,1.78l-7.67,1.15-2.83-18.92,7.67-1.15c2.01-.3,3.72-.2,5.13.29,1.41.49,2.55,1.39,3.41,2.68.86,1.29,1.45,3.01,1.77,5.16.32,2.12.25,3.94-.19,5.44Z"/>
      <polygon points="226.91 463.28 206.35 471.22 207.18 473.37 216.31 469.85 224.03 489.84 226.37 488.93 218.65 468.94 227.74 465.43 226.91 463.28"/>
      <rect x="233.45" y="460.26" width="2.52" height="23.74" transform="translate(-189.77 159.38) rotate(-27.18)"/>
      <polygon points="252.84 446.58 255.21 463.81 256.04 468.59 255.9 468.69 251.67 466.29 236.26 458.17 233.44 460.14 247.05 479.59 249.11 478.15 239.52 464.45 237.64 461.88 237.78 461.77 240.86 463.51 256.11 471.53 258.6 469.78 256.31 452.71 255.7 449.24 255.87 449.12 257.64 451.78 267.23 465.48 269.29 464.04 255.68 444.59 252.84 446.58"/>
      <polygon points="274.5 455.68 268.42 449.75 278.88 439.02 277.26 437.43 266.79 448.16 260.81 442.32 271.64 431.21 270 429.61 259.16 440.72 259.16 440.72 257.4 442.52 274.4 459.09 274.99 458.48 274.99 458.48 286.99 446.18 285.34 444.57 274.5 455.68"/>
      <polygon points="299.03 426.09 290.23 438.31 272.84 425.78 271.37 427.82 290.63 441.69 291.08 441.06 291.08 441.06 292.09 439.66 292.1 439.65 292.1 439.65 300.9 427.44 299.03 426.09"/>
      <polygon points="309.71 405.94 302.62 419.74 295.06 415.86 301.91 402.52 299.89 401.49 293.04 414.82 285.6 411 292.69 397.19 290.65 396.14 283.56 409.95 283.56 409.95 282.83 411.37 282.8 411.43 282.8 411.43 282.41 412.18 303.52 423.03 304.67 420.79 304.67 420.79 311.76 406.99 309.71 405.94"/>
      <path d="M316.64,383.79c-.76-.95-1.66-1.59-2.72-1.94-1.17-.38-2.24-.43-3.22-.15-.98.29-1.87.84-2.69,1.67-.82.82-1.57,1.87-2.26,3.13l-2.51,4.43c-.61,1.02-1.18,1.83-1.7,2.44-.52.61-1.1,1-1.73,1.18-.63.18-1.36.13-2.19-.14-.83-.27-1.44-.73-1.84-1.37-.4-.64-.58-1.49-.54-2.55.04-1.06.3-2.33.79-3.81.55-1.66,1.18-2.93,1.89-3.82.72-.88,1.53-1.44,2.43-1.66.91-.22,1.9-.16,2.97.2l.4.13.8-2.42-.2-.07c-1.37-.45-2.73-.54-4.07-.26-1.35.28-2.58.98-3.7,2.1-1.12,1.12-2.03,2.75-2.73,4.88-.53,1.62-.82,3.06-.85,4.33-.03,1.27.13,2.36.49,3.27.36.92.85,1.67,1.46,2.25.62.59,1.3,1.01,2.07,1.26,1.26.41,2.38.46,3.37.12.99-.33,1.88-.92,2.65-1.77.78-.85,1.49-1.84,2.14-2.97l2.48-4.48c.88-1.55,1.74-2.62,2.57-3.2.83-.59,1.87-.67,3.13-.26.85.28,1.49.75,1.9,1.41.42.66.6,1.51.56,2.55-.04,1.04-.32,2.33-.82,3.85-.58,1.75-1.23,3.1-1.97,4.05-.74.95-1.55,1.55-2.45,1.78-.9.24-1.89.18-2.96-.17l-.44-.14-.8,2.42.2.07c1.41.46,2.8.54,4.16.21,1.36-.32,2.61-1.1,3.74-2.33,1.13-1.23,2.05-2.95,2.78-5.15.69-2.09.95-3.89.79-5.41-.16-1.52-.62-2.75-1.37-3.7Z"/>
      <path d="M320.93,360.34c-.9-.82-1.89-1.31-2.99-1.49-1.21-.2-2.28-.08-3.2.36-.92.44-1.72,1.13-2.4,2.07-.68.94-1.26,2.09-1.74,3.45l-1.78,4.77c-.44,1.1-.87,1.99-1.3,2.68-.42.68-.93,1.16-1.52,1.44-.6.27-1.32.34-2.19.2-.86-.14-1.54-.5-2.03-1.07-.49-.57-.81-1.38-.93-2.43-.13-1.05-.07-2.34.18-3.88.28-1.72.7-3.08,1.27-4.07.57-.99,1.28-1.66,2.14-2.02.86-.36,1.85-.45,2.97-.27l.42.07.41-2.52-.21-.03c-1.42-.23-2.78-.1-4.06.38-1.29.48-2.39,1.37-3.32,2.66-.93,1.28-1.57,3.04-1.93,5.25-.27,1.68-.33,3.15-.16,4.41.17,1.26.5,2.31.99,3.16.5.85,1.1,1.51,1.79,1.99.7.48,1.45.79,2.24.92,1.31.21,2.42.08,3.35-.41.93-.48,1.71-1.21,2.34-2.17.64-.96,1.18-2.05,1.64-3.27l1.75-4.81c.63-1.67,1.31-2.86,2.03-3.57.73-.71,1.74-.96,3.05-.74.89.14,1.59.51,2.1,1.09.52.59.83,1.4.95,2.43.12,1.04.05,2.35-.21,3.93-.3,1.82-.73,3.26-1.31,4.31-.58,1.06-1.29,1.77-2.14,2.15-.85.38-1.84.47-2.95.29l-.45-.07-.41,2.52.21.03c1.47.24,2.85.09,4.15-.44s2.4-1.49,3.32-2.89c.92-1.39,1.57-3.23,1.94-5.52.35-2.17.33-3.99-.06-5.47-.39-1.48-1.04-2.62-1.94-3.44Z"/>
      <path d="M39.56,159.42l-7.11-3.56.51-13.53,7.36-3.03.11-2.94-25.02,10.24-.13,3.63,24.18,12.04.11-2.86ZM17.82,148.68v-.22s3.25-1.24,3.25-1.24l9.48-3.91-.43,11.39-9.17-4.59-3.14-1.44Z"/>
      <rect x="5.75" y="147.28" width="9.92" height="1.91" transform="translate(-137.82 153.43) rotate(-87.87)"/>
      <path d="M41.45,132.57l-9.82-2.23,1.17-5.16c.24-1.07.55-1.93.9-2.56.36-.63.8-1.14,1.32-1.51.52-.37,1.17-.68,1.93-.94l7.92-2.68.67-2.94-8.37,2.84c-.78.25-1.49.57-2.1.95-.62.39-1.12.95-1.51,1.69l-.18-.04c.3-1.52.3-2.88.01-4.1-.29-1.22-.85-2.25-1.69-3.1-.84-.84-1.94-1.42-3.3-1.73-1.48-.34-2.81-.27-4,.2-1.19.47-2.2,1.28-3.04,2.42-.84,1.14-1.45,2.55-1.83,4.22l-2.67,11.75,24,5.46.58-2.54ZM19.77,127.64l2.08-9.17c.43-1.89,1.15-3.24,2.16-4.05,1.01-.81,2.37-1.03,4.06-.64,1.72.39,2.86,1.17,3.41,2.34.55,1.17.61,2.69.18,4.58l-2.08,9.17-9.82-2.23Z"/>
      <rect x="34.25" y="94.88" width="2.61" height="24.62" transform="translate(-77.35 105.09) rotate(-70.58)"/>
      <path d="M48.85,105.7l-5.01-6.17,6.04-12.12,7.95.27,1.31-2.63-27.01-.99-1.62,3.26,17.06,20.95,1.28-2.57ZM33.48,86.95l.1-.2,3.47.21,10.25.35-5.09,10.2-6.46-7.96-2.27-2.61Z"/>
      <polygon points="69.42 71.63 61.38 56.75 58.35 51.59 58.52 51.4 64.05 53.87 79.87 60.37 82.51 57.52 68.79 36.12 66.84 38.22 76.36 52.91 79.28 57.17 79.15 57.31 74.34 55.1 57.6 48.19 55.1 50.88 63.64 66.62 66.34 71.12 66.18 71.29 61.62 68.81 45.85 60.85 43.88 62.97 66.77 74.49 69.42 71.63"/>
      <path d="M80.92,42.76c1.42,2.15,3.09,3.72,5.01,4.72,1.93,1,3.96,1.42,6.09,1.26,2.14-.16,4.22-.92,6.24-2.25,2.06-1.37,3.59-2.99,4.56-4.89.98-1.89,1.39-3.93,1.23-6.1-.16-2.17-.95-4.33-2.36-6.47-1.42-2.15-3.09-3.72-5.03-4.71-1.93-1-3.97-1.42-6.09-1.26-2.13.16-4.22.92-6.29,2.28-2.02,1.34-3.53,2.96-4.52,4.86-.99,1.9-1.4,3.94-1.23,6.1.17,2.16.96,4.32,2.38,6.46ZM81.94,31.32c.78-1.44,2.03-2.73,3.74-3.86,1.74-1.15,3.42-1.8,5.05-1.95,1.63-.15,3.18.19,4.63,1.01,1.46.83,2.8,2.17,4.03,4.03,1.22,1.84,1.92,3.6,2.12,5.27.2,1.68-.09,3.23-.87,4.67-.78,1.44-2.04,2.73-3.78,3.88-1.72,1.13-3.39,1.78-5.02,1.93-1.63.15-3.17-.19-4.63-1.04-1.45-.85-2.79-2.19-4-4.03-1.23-1.86-1.94-3.62-2.14-5.28-.2-1.66.09-3.21.87-4.65Z"/>
      <polygon points="112.82 37.19 106.67 20.98 105.43 17.91 105.6 17.85 108.25 20.38 121.54 32.32 124.49 31.2 126.53 13.45 126.8 9.81 127 9.73 128.11 12.85 134.26 29.07 136.7 28.14 127.97 5.12 124.6 6.4 122.6 24.33 122.22 29.35 122.05 29.41 118.41 25.92 104.99 13.84 101.65 15.1 110.38 38.12 112.82 37.19"/>
      <polygon points="141.97 27.49 158.4 24.87 158.03 22.51 142.13 25.05 140.74 16.34 156.09 13.89 155.72 11.57 140.37 14.02 139 5.46 154.9 2.92 154.52 .56 138.63 3.1 138.63 3.1 136.05 3.51 139.94 27.82 141.97 27.49"/>
      <polygon points="163.86 8.09 163.86 3.98 164.04 3.98 167.05 8.19 179.57 24.95 182.44 25.01 182.89 .39 180.28 .34 179.97 17.13 179.97 21.18 179.75 21.17 176.85 17 164.22 .05 161.4 0 160.95 24.61 163.55 24.66 163.86 8.09"/>
      <path d="M189.39,25.52c1.41,1.01,3.29,1.75,5.65,2.22,2.23.45,4.12.49,5.67.14,1.54-.35,2.76-.98,3.63-1.88.88-.9,1.43-1.91,1.66-3.04.25-1.25.17-2.36-.25-3.33-.42-.97-1.1-1.82-2.05-2.57-.95-.74-2.12-1.39-3.51-1.94l-4.88-2.03c-1.12-.5-2.03-.98-2.73-1.45-.69-.46-1.17-1.01-1.43-1.64-.26-.63-.3-1.39-.13-2.27.18-.89.57-1.58,1.18-2.07.61-.49,1.46-.78,2.55-.87,1.09-.09,2.43.02,4.02.34,1.78.36,3.16.85,4.16,1.47,1,.63,1.67,1.39,2.01,2.3.34.91.4,1.93.17,3.09l-.09.43,2.59.52.04-.22c.29-1.46.21-2.87-.24-4.23-.45-1.35-1.33-2.53-2.63-3.54-1.3-1.01-3.09-1.74-5.37-2.2-1.73-.35-3.25-.46-4.56-.33-1.31.13-2.42.43-3.31.91-.9.48-1.61,1.08-2.14,1.78-.53.71-.87,1.47-1.04,2.28-.27,1.34-.17,2.51.29,3.49.47.98,1.19,1.82,2.16,2.51.97.69,2.08,1.3,3.33,1.83l4.92,2c1.7.72,2.91,1.46,3.62,2.24.71.78.92,1.84.65,3.18-.18.91-.59,1.63-1.21,2.14-.63.51-1.48.81-2.56.89-1.08.08-2.44-.04-4.07-.36-1.87-.38-3.35-.88-4.42-1.52-1.07-.64-1.79-1.41-2.14-2.3s-.42-1.92-.19-3.07l.09-.47-2.59-.52-.04.22c-.3,1.51-.2,2.95.3,4.31.5,1.36,1.46,2.55,2.87,3.55Z"/>
      <polygon points="219.72 23.58 233.71 29.72 234.66 27.57 220.66 21.42 224.45 12.81 238.94 19.18 239.9 16.99 225.4 10.63 225.41 10.62 223.02 9.58 213.12 32.11 215.51 33.16 219.72 23.58"/>
      <path d="M235.9,36.29c-.19,2.16.19,4.2,1.16,6.11.97,1.91,2.45,3.55,4.46,4.91,2.05,1.39,4.13,2.18,6.26,2.36,2.12.18,4.16-.21,6.11-1.18,1.95-.97,3.64-2.52,5.09-4.65,1.44-2.13,2.26-4.28,2.44-6.45.18-2.17-.2-4.21-1.16-6.11-.96-1.91-2.46-3.55-4.51-4.94-2.01-1.36-4.08-2.14-6.21-2.33-2.14-.19-4.17.2-6.11,1.18-1.94.98-3.63,2.53-5.07,4.66-1.44,2.13-2.26,4.27-2.46,6.44ZM238.44,36.64c.23-1.67.96-3.41,2.2-5.24,1.25-1.84,2.61-3.17,4.06-3.99,1.46-.82,3-1.14,4.63-.97,1.63.17,3.3.84,5,1.99,1.72,1.17,2.96,2.48,3.73,3.93.76,1.45,1.04,3.01.83,4.67-.21,1.66-.94,3.42-2.19,5.26-1.24,1.83-2.59,3.15-4.07,3.97-1.47.82-3.03,1.14-4.65.97-1.63-.17-3.31-.84-5.03-2.01-1.7-1.15-2.94-2.46-3.7-3.91-.76-1.45-1.03-3.01-.8-4.67Z"/>
      <path d="M255.6,57.59l7.12-7.12,3.74,3.74c.78.78,1.34,1.49,1.69,2.13.35.64.54,1.28.57,1.92.03.64-.04,1.35-.23,2.13l-1.95,8.13,2.13,2.13,2.05-8.6c.21-.8.31-1.56.31-2.29,0-.73-.21-1.45-.62-2.18l.13-.13c1.13,1.06,2.28,1.79,3.47,2.19,1.19.41,2.36.48,3.52.22,1.16-.26,2.23-.88,3.22-1.87,1.07-1.07,1.73-2.24,1.96-3.5.23-1.26.09-2.54-.43-3.86-.52-1.32-1.39-2.58-2.6-3.79l-8.52-8.52-17.4,17.41,1.85,1.84ZM271.31,41.87l6.65,6.65c1.37,1.37,2.13,2.7,2.28,3.99.15,1.29-.39,2.55-1.62,3.78-1.25,1.25-2.51,1.79-3.79,1.64-1.28-.16-2.61-.92-3.98-2.29l-6.65-6.65,7.12-7.12Z"/>
      <polygon points="271.47 74.06 285.99 64.58 288.72 62.71 288.82 62.87 286.92 66 278.11 81.54 279.83 84.18 297.6 82.36 301.21 81.85 301.33 82.03 298.53 83.78 284.01 93.26 285.43 95.44 306.04 81.99 304.08 78.97 286.13 80.86 281.15 81.57 281.05 81.41 283.68 77.11 292.61 61.41 290.66 58.42 270.05 71.88 271.47 74.06"/>
      <path d="M286.85,99.19l7.93.52,4.78,12.67-5.61,5.65,1.04,2.75,19.09-19.14-1.28-3.4-26.96-1.72,1.01,2.68ZM311.05,100.67l.08.21-2.51,2.4-7.23,7.28-4.03-10.67,10.23.67,3.46.11Z"/>
      <polygon points="295.11 122.95 295.11 122.95 295.14 123.09 295.44 124.72 295.45 124.72 298.31 140.07 300.66 139.63 297.79 124.28 319.64 120.2 319.16 117.64 294.97 122.16 295.11 122.95"/>
      <path d="M316.69,140.71c-1.37.03-2.48.38-3.34,1.05-.86.67-1.51,1.55-1.98,2.65-.47,1.1-.82,2.31-1.06,3.64l-.87,5.24c-.33,1.82-.79,3.16-1.4,4.02-.61.86-1.59,1.3-2.97,1.33-.93.02-1.71-.22-2.35-.72-.64-.5-1.11-1.27-1.43-2.3s-.49-2.38-.53-4.05c-.04-1.91.13-3.46.52-4.64.39-1.18.98-2.05,1.78-2.59.8-.55,1.78-.83,2.96-.86h.48s-.06-2.66-.06-2.66h-.22c-1.54.04-2.92.45-4.14,1.24-1.22.79-2.17,1.98-2.84,3.57-.68,1.6-.99,3.59-.93,5.99.05,2.28.42,4.13,1.1,5.56.68,1.43,1.56,2.47,2.63,3.14,1.07.66,2.18.98,3.33.95,1.27-.03,2.34-.35,3.19-.97.86-.62,1.54-1.47,2.06-2.56.51-1.09.89-2.37,1.12-3.85l.91-5.2c.24-1.21.51-2.2.82-2.98.3-.78.73-1.36,1.28-1.76.55-.39,1.29-.6,2.19-.62.91-.02,1.67.21,2.28.7.61.49,1.08,1.26,1.41,2.3.33,1.05.51,2.38.55,3.99.04,1.81-.13,3.27-.53,4.38-.39,1.11-.99,1.93-1.8,2.47-.81.53-1.8.81-2.98.84h-.44s.06,2.65.06,2.65h.22c1.49-.04,2.85-.42,4.07-1.16,1.22-.74,2.18-1.85,2.88-3.34.7-1.49,1.03-3.39.97-5.72-.04-1.76-.26-3.27-.67-4.52-.41-1.25-.95-2.26-1.61-3.03s-1.4-1.33-2.21-1.7-1.62-.53-2.46-.51Z"/>
      <path d="M172.87,404.87c18.97-18.97,37.87-47.48,43.68-59.61,10.56-22.09,6-46.19-10.05-51.72-13.33-4.59-25.91-1.5-37.23,14.57-11.31-16.07-23.9-19.16-37.23-14.57-16.05,5.53-20.61,29.62-10.05,51.72,5.8,12.14,24.7,40.64,43.68,59.61,1.98,1.98,5.21,1.98,7.2,0Z"/>
      <path d="M191.25,249.63l-8.81.39,7.2,11.98h39.28l1.68-5.58,2.57-6.91-7.11.13c-.89-.23-6.8-2.25-11.39-14.98l-39.87-109.96h-25.22l-2.47,12.38h6.43c2.62,0,3.79.09,5.13,1.78l-34.79,95.81c-4.59,12.72-10.49,14.73-11.39,14.97l-6.62-.15,3.75,12.51h33.62l7.02-11.8-8.62-.56s-3.72-.3-5.19-2.54c-1.13-1.73-.97-4.87.46-8.85l9.17-25.42h40.71l9.17,25.43c1.43,3.97,1.6,7.11.46,8.84-1.43,2.18-4.96,2.52-5.18,2.54ZM150.82,199.71l15.64-42.95,15.59,42.95h-31.23Z"/>
      <polygon points="194.36 98.06 150.27 98.06 144.19 110.31 188.28 110.31 194.36 98.06"/>
      <path d="M18.83,264.4c2.18-.34,3.95-2.15,6.1-2.51-10.98,13.63,4.85,24.85,15.42,12.21,0-.32-2.88-.63-3.54-.83-5.99-1.84-6.59-11.62.04-11.61,1.03,0,3.08.66,4.08,1.06,1.29.52,2.25,1.47,3.53,1.74-1.17-4.78-1.06-9.86,0-14.65-1.9.55-3.59,1.94-5.59,2.25-5.12.8-7.92-2.36-6.31-7.33,1.25-3.87,4.19-4.32,7.78-4.81-3.48-5.23-12.47-7.96-17.09-2.7-2.82,3.21-2.28,8.6-.26,12.09.24.41,1.94,2.31,1.68,2.56-2.18-.72-4.24-2.26-6.57-2.55-5.31-.65-12.9,6.17-18.1,7.44l.33.57c5.61,1.74,12.5,8.02,18.5,7.07Z"/>
      <path d="M320.45,249.32c-2.33.28-4.39,1.83-6.57,2.55-.26-.25,1.44-2.15,1.68-2.56,2.01-3.49,2.56-8.88-.26-12.09-4.62-5.26-13.61-2.52-17.09,2.7,3.59.49,6.53.94,7.78,4.81,1.61,4.98-1.18,8.14-6.31,7.33-2-.31-3.68-1.7-5.59-2.25,1.06,4.79,1.17,9.87,0,14.65,1.28-.26,2.24-1.21,3.53-1.74,1-.41,3.05-1.06,4.08-1.06,6.63,0,6.03,9.77.04,11.61-.66.2-3.54.51-3.54.83,10.56,12.64,26.4,1.42,15.42-12.21,2.15.35,3.92,2.16,6.1,2.51,6,.94,12.89-5.33,18.5-7.07l.33-.57c-5.2-1.26-12.79-8.08-18.1-7.44Z"/>
    </g>
  </g>
</svg>