<?xml version="1.0" encoding="UTF-8"?>
<svg id="Layer_2" data-name="Layer 2" xmlns="http://www.w3.org/2000/svg" viewBox="0 0 421.9 461.58">
  <defs>
    <style><![CDATA[
      path, polygon, rect {
        stroke: #1c1e1d;
        stroke-miterlimit: 10;
        stroke-width: 1.5px;
        fill: #1c1e1d;
        stroke-dashoffset: 1;
      }
      .cls-1 {
        fill: none;
      }
    ]]></style>
  </defs>
  <script type="text/javascript"><![CDATA[
    window.addEventListener('load', function() {
      var svg = document.documentElement;
      var allEls = Array.from(svg.querySelectorAll('path, polygon, rect'));

      // Freeze each element hidden (dashoffset = length), no transition yet
      allEls.forEach(function(el) {
        var len = el.getTotalLength ? Math.ceil(el.getTotalLength()) : 800;
        el.style.strokeDasharray  = len + 'px';
        el.style.strokeDashoffset = len + 'px';
        el.style.transition = 'none';
      });

      // Force reflow so hidden state is committed
      svg.getBoundingClientRect();

      // Now apply transition and animate to 0 (fully drawn)
      requestAnimationFrame(function() {
        requestAnimationFrame(function() {
          allEls.forEach(function(el) {
            el.style.transition = 'stroke-dashoffset 3.5s cubic-bezier(0.65, 0, 0.2, 1)';
            el.style.strokeDashoffset = '0';
          });
        });
      });
    });
  ]]></script>
  <g id="Layer_1-2" data-name="Layer 1">
    <g>
      <path class="cls-1" d="M213.9,460.58h-5.91c-114.14,0-207-92.86-207-206.99v-45.58C1,93.86,93.86,1,207.99,1h5.91c114.14,0,207,92.86,207,207v45.58c0,114.14-92.86,207-206.99,207Z"/>
      <g>
        <path d="M224.14,247.78c-3.36,4.49-7.1,8.9-7.41,14.83,5.09-.83,9.26-2.55,12.97-6.18-.48,4.04.1,8.03.03,12.08-.04,2.45-1.29,4.41-.03,7.08-3.99-2.33-7.46-5.87-12.35-6.18-1.57,10.97,8.68,18.77,18.93,19.08,3.73.11,7.79-1.8,10.93-3.73,1.07-.66,3.89-3.56,4.38-3.58,5.72-.2,7.18,4.77,10.38,8.23,7.05,7.62,25.66,4.66,27.66-5.51.9-4.56-6.98-1.91-9.86-2.12,1.9-3.51,3.61-12,5.87-14.83.67-.83.59-.67,1.21.03,1.28,1.46,2.35,4.07,3.77,5.5.59.59,1.5.6,2.09,1.03s.95,2.93,2.21.87c.17-.28.96-4.79.91-5.24-.2-1.87-.35-3.58-.55-5.58-.17-1.73-.83-3.15-1.02-4.62-.45-3.34,2.33-.37,4.07.27,1.65.61,11.68,3.1,11.72,3.72-3.17,5.1-6.58,8.95-7.86,14.99-.35,1.67-.04,3.3-.46,5.12-.46,1.98-4.3,5.4-5.39,7.58-1.54,3.09-4.11,12.38-3.6,15.54.32,1.99,5.28,6.3,1.86,9.92-.54.58-5.14,2.92-5.48,3.5-.39.66.54,2.24.53,3.3,0,1.62-.95,6.52-1.99,7.59-.48.49-11.3,4.12-12.99,4.63-5.98,1.8-12.69,3.48-18.78,4.09-1.07.11-2.15-.49-2.93-.37-1.55.23-3.59,3.22-4.42,3.53-.49.18-.39-1.59-1.19-1.73-.95-.17-3.07,1.43-3.86,1.54-3.94.53-14.25.71-18.54.58-5.16-.15-12.34-2.23-17.73-1.64-.4.04-3.76,2.47-7.43,2.28-13.28-.69-27.1-3.6-40.2-5.35-3.21-.43-7.48-2.81-10.62-3.04-2.47-.18-1.08.58-3.54-.46-2.18-.91-7.16-2.15-8.47-4.19-2.1-3.25-1.53-5.9-1.84-9.32-.37-4.11-1.27-2.24-3.89-2.79-.9-.19-1.95-3.21-2.95-3.41.98-1.66,1.07-3.44,1.62-5.18.23-.72,1.24-1.37,1.4-2.33.75-4.61-1.96-14.35-4.84-18.25-.69-.94-2.68-2.13-3.32-3-2.23-3.03-1.13-9.04-4.2-14.37-1.02-1.76-5.99-6.13-2.85-8.02,3.59-2.16,9.55-3.33,13.45-5.37.56,2.58-1.03,4.73-1.24,7.1-.17,1.95-.64,10.4,1.54,10.69,1.45-.96,3.51-2.53,4.65-3.89,1.22-1.46,1.99-4.13,3.7-5.25.44,2.34,7.09,15.76,6.19,16.68-3.76-.67-7.36-1.56-11.12-.31.11,1.34,2.23,2.72,2.3,2.9.18.44-.76.97.41,2.39,5.7,6.88,19.58,8.59,26.33,2.12,1.72-1.64,3.77-6.92,4.11-7.16.79-.55,6.26-1.43,7.23-1.09.87.31,1.14,1.71,2.04,2.3,13.73,9.11,31.79,1.66,31.75-15.37-5.2,0-9.02,3.99-12.97,6.8v-19.78c2.67,1.89,5.42,4.11,8.41,5.49,3.31,1.53,4.56,1.82,3.91-2.66-.61-4.19-5.21-7.54-6.76-11.48h24.1ZM224.14,301.55c.42-.49-.13-1.56-.64-2.14-.59-.67-10.16-6.49-10.85-6.52-3.91,2.08-8.23,4.11-12.01,6.62.02.59-.2,1.54.09,1.97.37.55,10.47,4.52,11.97,5.59,2.66-.46,4.55-2.54,6.68-3.77,1-.58,4.58-1.56,4.75-1.75ZM258.6,305.72c1.79-1.73-5.13-9.08-6.63-9.49-1.92-.52-7.63,4.09-9.9,4.71-.24.9.24,1.03.6,1.55.95,1.37,5.4,6.76,6.65,7,1.23.24,8.41-2.94,9.28-3.77ZM271.27,296.6c0-.42-.34-.76-.76-.76s-.76.34-.76.76.34.76.76.76.76-.34.76-.76ZM182.72,300.94c-1.78-.01-10.3-4.96-11.12-4.33-.09.07-.24,1.42-.7,2.07-1.6,2.25-4.46,4.13-4.87,7.19l10.12,4.25c.64-.12,6.92-8.7,6.57-9.18ZM269.87,299.09h-2.47c-.75.34,2.13,1.57,2.47,1.23v-1.23ZM275.75,300.32v.62c.4-.21.4-.41,0-.62ZM272.96,300.94c-1.29-.18-1.41-.06-1.23,1.23l1.23-1.23ZM269.87,301.56c-.87-.44-1.65.39-1.23.61.87.44,1.65-.39,1.23-.61ZM272.96,304.03c-1.93-.57-4.28-.88-3.7,1.84l3.7-1.84ZM149.97,308.98c-.37-.47-10.81-2.85-11.71-2.85-.72,0-.86.03-1.24.73.03,1.5,3.95,11.38,4.61,11.37l8.34-9.25ZM287.02,306.66c-1.43-1.69-12.21,1.14-12.19,2,1.53.77,7.97,9.83,9.25,8.96.33-.7,1.12-3.33,1.42-3.57.44-.37,1.53,0,1.67-.14.27-.26-.4-1.64-.32-2.17.22-1.47,1.69-3.29.18-5.08ZM269.25,306.5c-1.22,0-2.15-.42-1.85.92l1.54,1.55.3-2.47ZM271.73,307.74c-2.57-.31-2.57.91,0,.61v-.61ZM268.64,309.6l-1.84-.32c.63.94,1.95,1.54,1.84.32ZM267.4,312.67c.3-.24-1.08-1.64-1.85-1.22-.3.24,1.08,1.64,1.85,1.22ZM269.79,311.54c-2.18-.96-2.47,3.35.71,2.08,1.02-.41-.61-2.03-.71-2.08ZM276.05,326.89c1.01-1.35-5.06-3.78-6.04-4.15-20.02-7.37-40.37-6.99-61.12-6.58-19.37.38-38.35,2.92-57.07,8.58l-5.57,3.08c.26,1.02,5.81-.16,6.9.01,1.19.19,1.15,1.45,2.19,2.01,3.84,2.05,16.68,3.87,21.51,4.47,25.39,3.12,57.16,3.65,81.35-1.59,2.87-.62,6.4-1.1,9.07-1.93,3.17-.99,5.4-3.44,8.78-3.9ZM249.47,336.17s-1.31-.24-1.23.3c.97,1.69,1.93.41,1.23-.3Z"/>
        <path d="M199.36,244.65c-.25.3-4.07.73-4.9.67-.93.91,4.53,6.43,5.46,7.83.92,1.39,1.44,2.98,2.57,4.23-3.84-1.18-7.35-3.68-10.19-6.49-1.46-.64-.97,3.86-1.55,4.66,1.49,5.04-.73,22.6.93,25.63.65,1.19,1,.03,1.55-.32,1.39-.91,9.57-7.27,10.51-6.48-3.14,10.23-17.93,14.72-25.95,7.7-1.17-1.02,1.49-2.35.61-3.38-.24-.28-4.22-.88-4.94,0-.46-2.13,1.24-2.28,2.46-3.4l-2.47-.31c.58-1.97.04-5.96,2.3-6.67,3.68-1.16,2.52,1.77,3.91,4.36.31.58,3.14,2.93,3.68,2.31-.65-3.04,1.46-5.67,1.8-8.39,1.22-9.65-7.54-12.11-14.15-6.44,1.53-7.88-3.27-12.72-8.39-17.88-.51-.51-.54-.89-1.5-.66.92,2.45-.92,2.94-1.18,3.58-2.49,5.95-2.92,10.66-.68,16.81-1.39.27-2.71-.63-4.03-.63-3.27,0-7.49,4.97-7.08,8.31.53,4.28,3.01,5.77,4.82,8.81.73,1.22.8,4.43,2.02,1.81,1.24-2.66.94-5.86,3.09-8.37,2.07.69,4.86,1.64,5.47,4.02.4,1.57-2.94.51-2.44,2.74,1.31.62,7.75-.9,8.03-.61.13.13-.07,1.35,0,1.85-1.42-.72-9.24,2.13-8.35,3.71.76,1.35,2.12-.57,2.78.31-3.77,6.1-10.16,9.08-17.35,7.46-.84-.19-8.89-4.3-9.22-4.69-.1-.11-.24-1.16.31-1.23,1.81-.23,5.99.83,8,1.27,1.79.39,3.46,2.42,3.46-.94,0-1.95-2.03-6.29-2.84-8.34-2.21-5.61-5.05-11.12-7.4-16.7-1.08.04-5.31,9.7-7.1,10.49.08-2.15-.15-4.33,0-6.48.12-1.73,1.93-8.75,1.81-9.2-.73-2.64-5.3,1.08-5.52.85-1.05-4.2-2.16-8.26-.46-12.51,1.24-3.1,6.36-10.88,9.14-12.49,1.48-.86,2.89-1.38,4.6-1.58,2.6-.29,9.85.68,11.26.16,2.02-.74,3.4-3.82,4.68-4.92,7-6.01,13.52-8.67,22.89-7.5,2.74.34,10.47,2.73,12.36,1.68.75-.42,1.32-1.2,1.96-1.77l5.2,27.14ZM179.01,225.53c-1.24-.6-3.19,1.1-2.47,1.85.33.33,3.39-.68,2.47-1.85ZM167.58,227.39v.62c.4-.21.4-.41,0-.62ZM177.16,228.62v1.24s3.71,0,3.71,0v-1.24s-3.71,0-3.71,0ZM176.54,229.24c-.62-.63-2.48,1.21-1.85,1.85.62.63,2.48-1.21,1.85-1.85ZM164.18,232.32l-1.23-1.23c-.18,1.29-.06,1.41,1.23,1.23ZM176.08,232.32c0-.42-.34-.76-.76-.76s-.76.34-.76.76.34.76.76.76.76-.34.76-.76ZM179.02,233.56l-1.23-1.23c-.18,1.29-.06,1.41,1.23,1.23ZM192.31,233.57v.62c.4-.21.4-.41,0-.62ZM185.81,236.65c.7-.72-.26-1.99-1.23-.3-.08.54,1.19.35,1.23.3ZM178.09,236.04v.62c.4-.21.4-.41,0-.62ZM176.68,238.39c-.35-.21.28-2.01-1.07-.51l-.3,2.48c.91.1,3.49.15,3.7-.93.38-1.95-2.05-.87-2.34-1.04ZM179.64,239.12c.91.2,1.29-.26,1.84-.93-.61-.27-2.44.64-1.84.93ZM150.58,240.36l-.3-1.85c-.65.56-1.13.94-.93,1.85h1.23ZM180.87,242.22c.7-.72-.26-1.99-1.23-.3-.08.54,1.19.35,1.23.3ZM185.81,242.83c.44-.87-.39-1.65-.61-1.23-.44.87.39,1.65.61,1.23ZM175.31,242.22c-.72-.7-1.99.26-.3,1.23.54.08.35-1.19.3-1.23ZM182.72,244.07c.44-.87-.39-1.65-.61-1.23-.44.87.39,1.65.61,1.23ZM185.51,243.46v.62c.4-.21.4-.41,0-.62ZM175.62,245.31v.62c.4-.21.4-.41,0-.62ZM138.84,247.16c.44-.87-.39-1.65-.61-1.23-.44.87.39,1.65.61,1.23ZM179.63,246.55c-.82-.68-3.81,1.66-3.08,2.47l3.08-2.47ZM144.4,247.79l-1.85-.62c-.07,1.72,1.22,2.48,1.85.62ZM182.42,251.49v.62c.4-.21.4-.41,0-.62ZM143.17,253.35c-.87-.44-1.65.39-1.23.61.87.44,1.65-.39,1.23-.61Z"/>
        <path d="M289.17,233.37c.17.12.83-.23,1.08,0,2.33,2.17,2.58,5.2,4.21,8.08,1.09,1.93,3.28,2.44,3.26,5.98,0,1.11-1.14,7.02-1.87,7.52-1.02.7-3.57-1.43-4.96-.98.67,5.14,1.63,10.22,1.23,15.45-1.91-.5-5.8-8.62-6.48-8.64-.83.69-1.46,1.37-2.01,2.31-1.84,3.12-4.42,10.36-5.74,14.04-.45,1.25-3.04,8.24-2.97,8.7.3,2.07,3.14-.13,3.97-.28,2.17-.4,4.83-.56,7.06-.66-6.43,6.93-18.68,7.44-24.09-.93,5.37-2.77-1.87-3.38-1.85-4.94l2.46-.93c-.44-2.17-2.02-2.17-.53-4.56.09-.15,2.38-2.37,2.55-2.43,3.9-1.42,4.13,7.9,5.08,7.61,9.09-6.73,9.26-20.49-5.24-16.68-.63-.69,2.33-5.98,2.34-7.53.04-4.33-2.54-10.08-5.13-13.48-1.28,4.15-6.43,6.07-7.87,10.05-.95,2.63-1.08,6.3-1.1,9.1-1.28-1.04-2.14-2.57-3.88-3.22-2.66-1-5.79.54-7.81,2.34-4.24,3.79-.38,10.37-.04,15.09,4.03-.45,2.48-8.26,7.6-6.7,1.73.53,2.54,4.87,2.28,6.33-.1.53-1.08.3-1.16.42-.87,1.18,2.38,1.85,2.41,3.66-.55.42-7.24-1.99-6.53.64.56,2.05,3.04,1.69-.45,3.82-9.94,6.04-20.93.94-25.15-9.09-.13-.41.55-.45.91-.3,2.15.91,9.95,7.65,11.12,7.41.43-.09.95-1.02.94-1.55v-28.12c-.34-.42-6.58,4.63-7.47,5.2-1.24.79-2.85,1.92-4.28,2.21-.85-.78,7.6-10.86,7.96-12.14.55-1.97-5.07-.61-4.84-2.95l4.93-25.08c5.61,1.87,12.74-1.8,18.26-1.88,1.96-.03,2.82,1.06,3.78,1.14s1.69-.9,2.35-.88c2.29.07,7.78,3.33,9.8,4.82,1.93,1.42,6.79,6.77,8.27,7.18,4.22,1.17,11.74.31,16.23,2.93.93.54.98,1.66,1.38,1.95ZM250.1,225.54h-1.85s0,1.23,0,1.23c.85.19,1.64-.33,1.85-1.23ZM267.4,228.01c-1.15-.06-2.72-.18-3.09,1.22,1.15.06,2.72.18,3.09-1.22ZM263.69,228.63c-.87-.44-1.65.39-1.23.61.87.44,1.65-.39,1.23-.61ZM244.53,230.47l-1.23-1.23c-.18,1.29-.06,1.41,1.23,1.23ZM261.84,229.24l-3.7.3c.87,1.19,2.39.97,3.7.93v-1.23ZM275.13,232.95v.62c.4-.21.4-.41,0-.62ZM247,234.81c.9,3.73,2.67,1.2,2.47-1.24-1.06.44-.63,1.75-2.47,1.24ZM243.61,234.18v.62c.4-.21.4-.41,0-.62ZM247.93,237.27v.62c.4-.21.4-.41,0-.62ZM277.9,238.51c.44-.87-.39-1.65-.61-1.23-.44.87.39,1.65.61,1.23ZM285.94,237.9c-.87-.44-1.65.39-1.23.61.87.44,1.65-.39,1.23-.61ZM250.09,240.37c-.87-.44-1.65.39-1.23.61.87.44,1.65-.39,1.23-.61ZM271.73,241.59l-1.23-1.23c-.18,1.29-.06,1.41,1.23,1.23ZM268.33,240.98v.62c.4-.21.4-.41,0-.62ZM281,240.99h-2.47s0,1.23,0,1.23c1.15.16,2.14,0,2.47-1.23ZM233.4,241.6s-1.31-.24-1.23.3c.97,1.69,1.93.41,1.23-.3ZM276.36,242.22v.62c.4-.21.4-.41,0-.62ZM266.47,242.84v.62c.4-.21.4-.41,0-.62ZM274.2,244.69c3.34-.09.78-2.8-.62-1.84-.17.12.91,1.2.62,1.84ZM282.85,244.07c-.4-2.25-3.8-.32-3.09,0h3.09ZM234.33,243.46v.62c.4-.21.4-.41,0-.62ZM276.05,247.16l-1.85-1.85-.62,2.47,2.47-.62ZM279.76,248.39c-.52-1.35-1.03-1.47-1.85-.3l1.85.3ZM284.71,250.87l-1.23-1.23c-.18,1.29-.06,1.41,1.23,1.23ZM277.45,250.86c0-.42-.34-.76-.76-.76-.42,0-.76.34-.76.76s.34.76.76.76.76-.34.76-.76ZM281,253.97c-.87-.44-1.65.39-1.23.61.87.44,1.65-.39,1.23-.61Z"/>
        <path d="M225.36,140.85c-.05.07-.76-.18-1.06.32-1.78,3.02-4.06,4.84-5.62,7.53-1.54,2.65-3.48,7.9,1.44,4.53,1.65-1.13,7.3-7.11,8.13-7.34,3.62-1.01,1.57,6.81,1.59,8.71.06,4.43-.14,8.74-.18,13.12-.02,1.62,2.07,5.15-1.82,3.09-1.64-.87-4.74-5.13-7.69-6.5-3.09-1.44-3.37-.52-2.53,2.53.16.57,4.29,8.48,4.61,8.86,1.07,1.25.88.35,2.65,3.03.92,1.4,4.68,6.94,4.8,8.2.14,1.45-1.51,6.08-2.26,7.54-.14.27-2.75,4.34-2.92,4.56-.68.84-2.11,1.06-2.22,1.18-.41.46-.21,1.44.93,1.24,1.98-.35,5.33-5.19,5.9-.35-3.11,12.27-5.9,24.54-7.44,37.12-.25,2.05,1,5.4-1.55,5.87-5.17.95-12.24-1.09-17.61.62-1.25-14.56-3.96-28.95-8.08-42.96-.27-4.99,3.58-1.05,5.92.31.42.13.45-.59.3-.92-.66-1.42-3.6-4.31-4.45-6.06-1-2.07-2.84-7.34-1.72-9.26s.92-2.37,1.71-3.98c2.31-4.65,6.53-8.86,8.8-13.45,5.56-11.23-7.9,1.45-9.33,2.41-.63.42-1.57,1.37-2.13.38l.33-25.36c2.88,2.07,4.98,5.24,8.07,7.07,5.84,3.45,4.72-.82,2.09-4.56-.99-1.4-7.23-6.07-4.62-7.79l24.99-.78c.43.09,1.17.82.98,1.1ZM215.79,146.42v.62c.4-.21.4-.41,0-.62ZM194.78,155.07v.62c.4-.21.4-.41,0-.62ZM222.59,156.93v.62c.4-.21.4-.41,0-.62ZM211.47,158.16v.62c.4-.21.4-.41,0-.62ZM211.77,161.87c.44-.87-.39-1.65-.61-1.23-.44.87.39,1.65.61,1.23ZM228.15,164.96v.62c.4-.21.4-.41,0-.62ZM228.15,166.2v.62c.4-.21.4-.41,0-.62ZM199.1,191.54h26.89c.56-3.32-.75-2.2-2.63-3.23-.79-.43-1.33-1.26-2.16-1.55-1.11-.4-6.58-1.11-6.88-1.46-.82-.95,1.47-10.7-2.83-11.69l-2.7,2.88c-.69,3.31,1.19,6.24-.17,9.41-2.09.48-7.12.08-8.8,1.26-.59.41-2.3,3.93-.71,4.37ZM205.9,184.12v.62c.4-.21.4-.41,0-.62ZM214.38,222.94c-1.21-2.05,2.3-3.68,2.3-5.75,0-1.92-2.3-2.87-2.45-4.35-.2-1.92,2.05-3.45,1.77-5.39-.22-1.54-2.62-5.12-4.47-4.83-.34.05-4,4.13-4.07,5.35-.12,1.96,1.88,3.49,1.84,4.92s-2.59,1.79-1.73,5.41c.47,1.96,2.67,2.35,1.1,4.95-.23.38-1.09.35-1.21.87-.86,3.7,1.99,4.98,1.84,7.25-.21,3.08-3.97,2.67.02,7.44,2.1,2.51,3.88,2.87,5.8-.33,2.78-4.62-1.12-6.03-.91-8.27.18-1.89,3.91-3.01,1.82-6.16-.44-.67-1.52-.87-1.65-1.1Z"/>
        <path d="M193.23,211.31c-4.98-2.3-10.62-3.16-15.94-4.76-15.66-4.73-31.19-12.5-46.69-2.55-6.24,4-12.41,12.55-13.42,19.96-.53,3.85,1.42,16.93,2.54,21.01,1.19,4.33,4.32,8.38,6.76,12.08-4.36.58-7.83,3.32-11.74,4.95.04-.83,0-1.66-.35-2.43-2.02-4.34-5.34-9.76-6.76-14.27-.62-1.96-4.16-17.84-4.02-18.79.15-1,1.19-2.17,1.47-3.53,2.76-13.61,6.07-22.28,18.21-30,2.33-1.48,8.55-5.02,11.05-5.51,5.25-1.04,13.5-1.41,18.85-.69,8.3,1.13,20.56,6.4,28.15,9.54,2.29.95,6.87.64,8.53,1.98,1.55,1.25,2.7,10.63,3.35,13.02ZM132.66,197.09c-.3-1.19-1.37-1.39-2.47-1.22-.64.3,1.66,1.48,2.47,1.22ZM130.8,198.33c.44-.87-.39-1.65-.61-1.23-.44.87.39,1.65.61,1.23ZM134.82,197.1v.62c.4-.21.4-.41,0-.62Z"/>
        <path d="M296.17,191.21c9.8,5.67,13.6,5.27,18.35,17.18,3.3,8.3,4.89,22.02,2.89,30.99l-7.98,20.77c-1.98.65-.91-1.55-1.23-1.86-.77-.75-2.89,1.35-3.08,1.23-.05-.04.21-.81-.47-1.19-1.77-.99-4.95-1.85-6.95-2.52,4.57-7.93,7.9-17.21,8.48-26.43.69-10.84-7.21-24.44-17.43-28.58-17.77-7.19-36.14,3.21-53.2,8.01-1.51.42-3.01.79-4.6.65l1.31-10.74.53-.71,31.5-11.15c12.72-1.65,20.58-2.21,31.9,4.34ZM284.4,192.16v.62c.4-.21.4-.41,0-.62ZM256.59,195.86v.62c.4-.21.4-.41,0-.62ZM301.39,204.52c-.14-.14-1.98-.69-2.47-.62.3,1.19,1.37,1.39,2.47,1.22-.03-.2.08-.52,0-.6ZM304.18,204.52v.62c.4-.21.4-.41,0-.62Z"/>
        <path d="M178.4,188.45v1.85c-.62-.38-3.85-1.51-3.09-1.85h3.09Z"/>
        <path d="M132.66,208.23l-4.94,5.56c-.35-1.53.29-1.58,1.02-2.38.42-.47,3.46-3.62,3.92-3.18Z"/>
        <path d="M285.32,205.14v.6c-1.49.06-2.15.39-1.84-1.23l1.84.63Z"/>
        <path d="M272.96,221.82c-.72.7-1.99-.26-.3-1.23.54-.08.35,1.19.3,1.23Z"/>
        <path d="M174.69,188.44c-1.29.18-1.41.06-1.23-1.23l1.23,1.23Z"/>
        <path d="M125.86,216.89c.42.21-.36,1.05-1.23.61-.42-.21.36-1.05,1.23-.61Z"/>
        <path d="M282.54,203.9c.4.21.4.41,0,.62v-.62Z"/>
        <path d="M187.36,190.3c.4.21.4.41,0,.62v-.62Z"/>
        <path d="M230.63,211.32c.4.21.4.41,0,.62v-.62Z"/>
        <path d="M167.27,327.51c-1.49-.5-6.56,1.26-6.18-1.23,2.2.7,6.12-2.01,6.18,1.23Z"/>
        <g>
          <rect x="187.06" y="163.73" width=".61" height="2.47"/>
          <path d="M185.19,190.31c.42.21-.36,1.05-1.23.61-.42-.21.36-1.05,1.23-.61Z"/>
          <path d="M188.28,179.79c-.21.42-1.05-.36-.61-1.23.21-.42,1.05.36.61,1.23Z"/>
        </g>
      </g>
      <g>
        <g>
          <path d="M145.71,50.97l-19.1,6.41-1.67-4.97,19.1-6.41,1.67,4.97ZM136.12,108.63l-7.75,2.6,4.78-49.72,9.81-3.29,33.81,36.77-7.87,2.64-23.91-26.09-4.57-5.29-.52.17-.46,6.98-3.33,35.23ZM163.01,87.11l-28.85,9.68-2.1-6.26,28.85-9.68,2.1,6.26Z"/>
          <path d="M189.5,94.77l-7.35.33-2.02-45.57,23.67-1.05c3.45-.15,6.45.24,9.01,1.17,2.56.93,4.56,2.37,5.98,4.3,1.42,1.94,2.2,4.33,2.33,7.19.11,2.54-.32,4.74-1.31,6.6-.99,1.86-2.46,3.36-4.43,4.49-1.97,1.13-4.38,1.85-7.23,2.16l.02.48c1.79.38,3.19,1.05,4.21,2.03s1.97,2.17,2.85,3.59l8.2,12.79-8.43.37-7.84-12.26c-.73-1.19-1.52-2.15-2.34-2.86-.83-.71-1.84-1.21-3.03-1.5-1.2-.29-2.77-.39-4.72-.3l-8.37.37.78,17.68ZM187.77,55.8l.69,15.64,16.26-.72c3.04-.13,5.3-.82,6.79-2.07,1.49-1.25,2.17-3.3,2.04-6.16-.12-2.76-.98-4.73-2.58-5.88-1.6-1.16-3.91-1.67-6.95-1.53l-16.25.72Z"/>
          <path d="M238.12,95.74l-7.3-.86,5.33-45.3,7.3.86-5.33,45.3Z"/>
          <path d="M252.21,97.43l-7.76-2.57,33.67-36.9,9.82,3.25,4.98,49.7-7.89-2.61-3.46-35.22-.49-6.97-.52-.17-4.55,5.31-23.81,26.18ZM286.63,96.36l-28.89-9.57,2.08-6.27,28.89,9.57-2.08,6.27Z"/>
        </g>
        <g>
          <path d="M30.49,197.11v-3.44s17.11-3.83,17.11-3.83v2.6s-10.82,2.36-10.82,2.36l-3.63.65v.17s3.63.78,3.63.78l10.82,2.92v3.4s-10.82,3.12-10.82,3.12l-3.63.82v.17s3.63.61,3.63.61l10.82,2.17v2.55s-17.11-3.64-17.11-3.64v-3.44s9.96-2.92,9.96-2.92l4.39-1.06v-.2s-4.39-1.04-4.39-1.04l-9.96-2.75Z"/>
          <path d="M30.24,222.63c0-1.52.36-2.84,1.09-3.97.72-1.13,1.75-2.01,3.06-2.64,1.32-.63,2.87-.94,4.66-.94,1.79,0,3.34.31,4.66.94,1.32.63,2.34,1.51,3.06,2.64s1.09,2.46,1.09,3.97c0,1.54-.36,2.88-1.09,4.01-.72,1.13-1.75,2-3.06,2.63-1.32.63-2.87.94-4.66.94-1.79,0-3.34-.31-4.66-.94-1.32-.63-2.34-1.5-3.06-2.63-.72-1.13-1.09-2.46-1.09-4.01ZM32.89,222.63c0,1.14.22,2.09.65,2.85.43.76,1.11,1.32,2.02,1.7s2.07.56,3.49.56,2.59-.19,3.5-.56,1.57-.94,2-1.7c.43-.76.65-1.71.65-2.85,0-1.14-.22-2.09-.65-2.85-.43-.76-1.1-1.32-2-1.69-.9-.37-2.07-.55-3.5-.55-1.41,0-2.57.18-3.49.55-.91.37-1.58.93-2.02,1.69-.44.76-.65,1.71-.65,2.85Z"/>
          <path d="M30.49,236.23v-2.34s17.11,0,17.11,0v3.18s-9.9,4.18-9.9,4.18l-3.55,1.32v.17s3.55,1.28,3.55,1.28l9.9,4.14v3.18s-17.11,0-17.11,0v-2.34s10.49,0,10.49,0l2.48.09v-.17s-2.48-.89-2.48-.89l-9.47-4.01v-2.82s9.47-4.01,9.47-4.01l2.48-.89v-.17s-2.48.09-2.48.09h-10.49Z"/>
          <path d="M30.65,258.51l-.15-2.33,17.07-1.09.15,2.33-17.07,1.09ZM31.24,267.76l-.69-10.87,2.47-.16.69,10.87-2.47.16ZM38.58,266.97l-.67-10.55,2.45-.16.67,10.55-2.45.16ZM45.84,266.83l-.69-10.87,2.47-.16.69,10.87-2.47.16Z"/>
          <path d="M32.12,274.9l-.37-2.31,16.89-2.73.4,2.48-8.84,8.01-2.85,2.37.03.17,3.03-.6,9.98-1.61.37,2.31-16.89,2.73-.4-2.48,8.81-8.05,2.68-2.28-.03-.17-2.91.56-9.9,1.6Z"/>
          <path d="M36.31,296.79c-.37-1.38-.44-2.6-.23-3.67.21-1.06.68-1.94,1.4-2.64.72-.7,1.66-1.2,2.81-1.51l.15-.04.6,2.26-.4.1c-.66.17-1.17.44-1.54.81-.37.37-.59.87-.65,1.52s.04,1.48.31,2.52c.24.89.5,1.58.8,2.07.3.49.64.8,1.04.95.4.14.85.14,1.36,0,.72-.19,1.2-.53,1.42-1,.23-.48.32-1.18.29-2.11l-.24-3.61c-.03-.83.06-1.6.25-2.31.19-.71.54-1.31,1.05-1.81.51-.5,1.22-.87,2.12-1.11.59-.16,1.21-.2,1.84-.13.63.07,1.25.28,1.83.63.59.35,1.12.87,1.59,1.56.47.69.86,1.58,1.15,2.69.36,1.37.41,2.56.15,3.57-.26,1.01-.76,1.84-1.49,2.49-.73.65-1.65,1.12-2.73,1.41l-.15.04-.59-2.24.32-.09c.67-.18,1.21-.45,1.59-.82.39-.37.61-.87.68-1.5s-.02-1.43-.28-2.41c-.22-.85-.49-1.52-.79-2-.3-.48-.65-.8-1.03-.95-.38-.15-.83-.16-1.34-.02-.46.12-.82.31-1.07.55-.25.25-.42.57-.5.96-.08.39-.12.88-.13,1.47l.21,3.6c.05.99-.04,1.84-.27,2.57-.23.73-.61,1.32-1.14,1.79-.53.47-1.19.81-2,1.02-.84.22-1.68.23-2.53.02-.85-.21-1.61-.69-2.29-1.43-.68-.75-1.21-1.81-1.57-3.19Z"/>
          <path d="M42.42,314.89l-.88-2.17,15.85-6.42.88,2.17-15.85,6.42ZM52.11,320.54l-3.94-9.74,2.27-.92,3.94,9.74-2.27.92ZM59.43,317.93l-4.06-10.04,2.3-.93,4.06,10.04-2.3.93Z"/>
          <path d="M50.95,334.25c-.71-1.34-1-2.68-.89-4.02.11-1.34.61-2.59,1.48-3.76s2.1-2.17,3.68-3.01c1.58-.83,3.1-1.28,4.56-1.34,1.46-.06,2.77.24,3.94.91,1.17.66,2.11,1.67,2.81,3.01.72,1.37,1.02,2.72.91,4.05s-.61,2.58-1.48,3.75c-.87,1.17-2.1,2.17-3.68,3.01-1.58.83-3.1,1.28-4.56,1.34-1.46.06-2.77-.24-3.94-.9-1.17-.66-2.11-1.67-2.83-3.04ZM53.3,333.01c.53,1.01,1.17,1.75,1.9,2.22.74.47,1.6.66,2.58.56.98-.09,2.1-.47,3.35-1.13,1.26-.67,2.21-1.38,2.83-2.13.62-.75.95-1.57.98-2.44.03-.87-.22-1.82-.75-2.82-.53-1.01-1.17-1.75-1.9-2.22-.74-.47-1.59-.65-2.56-.56-.97.09-2.09.47-3.35,1.14-1.25.66-2.19,1.36-2.83,2.11-.63.75-.97,1.56-1,2.44-.03.87.22,1.81.75,2.82Z"/>
          <path d="M58.53,346.9l-1.3-1.95,14.23-9.48,4.18,6.27c.61.91.97,1.81,1.09,2.7.12.88-.02,1.71-.4,2.48-.39.77-1.03,1.45-1.92,2.05-.79.53-1.57.84-2.32.94s-1.47-.02-2.16-.33-1.3-.84-1.86-1.55l-.15.1c.17.56.18,1.08.04,1.55-.15.47-.38.97-.68,1.48l-2.75,4.75-1.49-2.24,2.64-4.55c.26-.43.44-.84.54-1.2.09-.37.09-.74-.01-1.12-.1-.38-.32-.83-.67-1.35l-1.48-2.22-5.53,3.68ZM70.71,338.79l-4.89,3.26,2.87,4.31c.54.8,1.12,1.29,1.77,1.45.64.16,1.41-.05,2.3-.65.86-.58,1.35-1.2,1.46-1.86s-.1-1.4-.64-2.2l-2.87-4.31Z"/>
          <path d="M68.72,361.42l-1.51-1.79,13.09-11.02,2.05,2.44-4.89,9.58-1.86,3.3.11.13,3.54-1.31,10.24-3.21,2.05,2.44-13.09,11.02-1.51-1.79,8.03-6.76,1.95-1.53-.11-.13-2.47.92-9.83,3.04-1.81-2.15,4.67-9.17,1.32-2.27-.11-.13-1.84,1.66-8.03,6.76Z"/>
          <path d="M83.35,377.9l-1.89-1.78,16.43-8.03,2.4,2.25-7,16.9-1.92-1.81,4.98-11.97,1.05-2.35-.13-.12-2.28,1.19-11.64,5.71ZM93.89,381.71l-7.05-6.63,1.7-1.8,7.05,6.63-1.7,1.8Z"/>
          <path d="M98.41,391.28l-1.85-1.43,10.45-13.54,1.85,1.43-10.45,13.54ZM105.49,396.74l-8.38-6.47,1.51-1.96,8.38,6.47-1.51,1.96Z"/>
          <path d="M114.86,402.99l-2.95-1.77,5.52-16.64,2.23,1.34-3.55,10.49-1.31,3.44.15.09,2.53-2.71,8.08-7.78,2.92,1.75-2.9,10.89-1.16,3.53.15.09,2.39-2.8,7.43-8.17,2.19,1.31-11.92,12.79-2.95-1.77,2.62-10.04,1.35-4.31-.17-.1-3.15,3.23-7.48,7.12Z"/>
          <path d="M134.18,413.56l-2.13-.96,7-15.61,2.13.96-7,15.61ZM142.64,417.35l-9.94-4.46,1.01-2.26,9.94,4.46-1.01,2.26ZM145.36,410.49l-9.64-4.32,1-2.24,9.64,4.32-1,2.24ZM148.63,404.01l-9.94-4.46,1.01-2.26,9.94,4.46-1.01,2.26Z"/>
          <path d="M148.62,419.66l-2.47-.82,11.55-14.18,3.12,1.04.74,18.28-2.51-.83-.5-12.95-.03-2.57-.16-.05-1.57,2.03-8.17,10.06ZM159.78,418.7l-9.19-3.06.78-2.35,9.19,3.06-.78,2.35Z"/>
          <path d="M167.94,425.51l-2.28-.51,3.7-16.7,7.36,1.63c1.07.24,1.96.63,2.65,1.19.7.56,1.17,1.24,1.43,2.07.25.82.26,1.76.03,2.81-.21.93-.55,1.69-1.03,2.28-.48.59-1.08,1.01-1.79,1.25-.71.24-1.52.3-2.42.17l-.04.17c.51.29.88.65,1.1,1.09.22.44.4.96.53,1.54l1.3,5.34-2.62-.58-1.24-5.11c-.11-.5-.26-.91-.45-1.24s-.45-.6-.79-.8-.81-.38-1.42-.51l-2.6-.58-1.44,6.48ZM171.1,411.23l-1.27,5.73,5.05,1.12c.94.21,1.7.15,2.28-.17s.98-1.01,1.21-2.06c.23-1.01.15-1.8-.23-2.35-.38-.55-1.04-.94-1.99-1.15l-5.05-1.12Z"/>
          <path d="M245.13,427.42l-2.29.48-3.53-16.74,2.29-.48,3.53,16.74ZM251.18,411.2l-10.66,2.25-.51-2.42,10.66-2.25.51,2.42ZM252.36,418.36l-10.34,2.18-.51-2.4,10.34-2.18.51,2.4ZM254.2,425.51l-10.66,2.25-.51-2.42,10.66-2.25.51,2.42Z"/>
          <path d="M266.87,406.48l-13.11,4.08-.74-2.36,13.11-4.08.74,2.37ZM265.78,422.15l-2.21.69-5.09-16.33,2.21-.69,5.09,16.33Z"/>
          <path d="M277.46,418.01l-2.16.9-6.6-15.78,2.16-.9,6.6,15.78ZM280.37,400.93l-10.05,4.2-.95-2.29,10.05-4.2.96,2.29ZM282.86,407.75l-9.75,4.08-.95-2.26,9.75-4.08.95,2.26ZM286.01,414.43l-10.05,4.2-.96-2.29,10.05-4.2.95,2.28Z"/>
          <path d="M292.42,411.27l-2.06,1.1-8.06-15.09,6.65-3.55c.97-.52,1.9-.79,2.79-.82s1.7.18,2.43.64c.73.46,1.34,1.16,1.85,2.11.45.84.68,1.64.7,2.4.02.76-.16,1.46-.54,2.11s-.96,1.22-1.73,1.7l.08.16c.58-.11,1.09-.08,1.55.11.46.19.92.47,1.41.82l4.46,3.2-2.37,1.26-4.27-3.07c-.41-.3-.79-.52-1.14-.65-.36-.13-.73-.16-1.12-.1-.39.06-.86.24-1.41.54l-2.35,1.25,3.13,5.85ZM285.53,398.37l2.77,5.18,4.57-2.44c.85-.46,1.39-.99,1.62-1.62s.08-1.4-.42-2.35c-.49-.92-1.06-1.46-1.71-1.64-.65-.17-1.4-.03-2.26.42l-4.57,2.44Z"/>
          <path d="M307.76,402.55l-1.94,1.3-9.53-14.21,2.09-1.4,10.97,4.69,3.34,1.6.14-.1-1.81-2.5-5.63-8.4,1.94-1.3,9.53,14.21-2.09,1.4-10.99-4.65-3.19-1.49-.14.1,1.72,2.41,5.59,8.33Z"/>
          <path d="M322.28,392.31l-1.99,1.67-5.99-17.28,2.53-2.11,15.93,8.98-2.03,1.69-11.28-6.38-2.2-1.32-.13.11.91,2.4,4.26,12.24ZM327.33,382.3l-7.43,6.2-1.59-1.9,7.43-6.2,1.59,1.9Z"/>
          <path d="M337.32,379.03l-1.64,1.66-12.18-12.01,1.64-1.66,12.18,12.01ZM343.6,372.66l-7.44,7.54-1.76-1.74,7.44-7.54,1.76,1.74Z"/>
          <path d="M351.53,363.46l-1.57,2.07-9.72-15.49,1.99-2.62,17.54,5.17-1.6,2.11-12.42-3.68-2.44-.79-.1.14,1.42,2.14,6.9,10.97ZM354.2,352.58l-5.85,7.72-1.97-1.5,5.85-7.72,1.97,1.5Z"/>
          <path d="M363.26,347.08l-1.21,2-14.64-8.85,1.3-2.15,11.93-.38,3.7.04.09-.15-2.7-1.51-8.65-5.23,1.21-2,14.64,8.85-1.3,2.15-11.93.43h-3.52s-.09.15-.09.15l2.58,1.46,8.59,5.19Z"/>
          <path d="M372.49,330.82l-.99,2.1-15.48-7.28.99-2.1,15.48,7.28ZM374.31,326.94l-2.49,5.29-2.24-1.05,2.49-5.29c.48-1.02.69-1.94.63-2.75-.06-.82-.42-1.57-1.08-2.27-.66-.69-1.65-1.35-2.98-1.97-1.34-.63-2.48-.98-3.43-1.04-.95-.06-1.76.14-2.42.62-.67.48-1.24,1.23-1.72,2.24l-2.49,5.29-2.24-1.05,2.49-5.29c.64-1.37,1.51-2.41,2.6-3.1,1.09-.69,2.34-1.04,3.75-1.04,1.41,0,2.92.38,4.52,1.13,1.6.75,2.85,1.67,3.75,2.76.9,1.09,1.43,2.27,1.59,3.55s-.08,2.6-.73,3.98Z"/>
          <path d="M371.23,293.43l-4.12,13.1-2.36-.74,4.12-13.1,2.36.74ZM383.47,303.26l-.69,2.21-16.32-5.13.69-2.21,16.32,5.13Z"/>
          <path d="M386.64,291.55l-.55,2.27-16.63-4.02.55-2.27,16.63,4.02Z"/>
          <path d="M388.28,284.38l-.36,2.31-16.9-2.62.49-3.15,10.43-2.61,3.71-.76.03-.17-3.31-1.81-9.16-5.61.49-3.14,16.9,2.62-.36,2.31-10.37-1.61-2.43-.47-.03.17,2.31,1.26,8.75,5.41-.43,2.78-9.97,2.51-2.58.5-.03.17,2.46.29,10.37,1.61Z"/>
          <path d="M391.07,261.73l-.11,2.34-17.09-.77.1-2.34,17.09.77ZM376.87,251.81l-.49,10.88-2.47-.11.49-10.88,2.47.11ZM384.1,252.47l-.48,10.56-2.45-.11.48-10.56,2.45.11ZM391.49,252.47l-.49,10.88-2.47-.11.49-10.88,2.47.11Z"/>
          <path d="M391.41,245.89v2.34s-17.11,0-17.11,0v-2.34s17.11,0,17.11,0ZM391.41,236.94v10.59s-2.48,0-2.48,0v-10.59s2.48,0,2.48,0Z"/>
          <path d="M376.78,221.86v10.89s-2.48,0-2.48,0v-10.89s2.48,0,2.48,0ZM391.41,231.13v2.34s-17.11,0-17.11,0v-2.34s17.11,0,17.11,0ZM384.03,222.18v10.57s-2.45,0-2.45,0v-10.57s2.45,0,2.45,0ZM391.4,221.86v10.89s-2.48,0-2.48,0v-10.89s2.48,0,2.48,0Z"/>
          <path d="M391.66,212.01c0,1.43-.24,2.63-.71,3.61-.48.97-1.15,1.71-2.03,2.2-.88.49-1.91.74-3.1.74h-.15s0-2.34,0-2.34h.41c.68,0,1.25-.13,1.7-.39.45-.26.79-.69,1.02-1.3.23-.61.34-1.44.34-2.51,0-.92-.08-1.66-.24-2.21-.16-.55-.42-.94-.77-1.18-.35-.24-.79-.36-1.31-.36-.75,0-1.29.2-1.63.61s-.61,1.06-.82,1.97l-.69,3.55c-.19.81-.46,1.53-.83,2.16-.37.64-.86,1.13-1.48,1.48s-1.4.53-2.34.53c-.61,0-1.22-.11-1.81-.35s-1.13-.59-1.61-1.08c-.48-.49-.85-1.13-1.14-1.92-.28-.79-.42-1.75-.42-2.89,0-1.41.26-2.58.77-3.49s1.21-1.58,2.08-2.02,1.88-.66,3-.66h.15s0,2.32,0,2.32h-.33c-.7,0-1.28.13-1.75.39-.47.26-.82.69-1.05,1.28s-.34,1.39-.34,2.4c0,.88.08,1.59.25,2.13.17.54.42.94.75,1.18.33.24.76.37,1.29.37.48,0,.87-.09,1.18-.26.31-.17.55-.44.73-.8.18-.36.34-.82.5-1.39l.71-3.53c.2-.97.51-1.77.92-2.42.41-.64.93-1.12,1.56-1.44s1.36-.48,2.2-.48c.87,0,1.69.21,2.45.63.76.42,1.38,1.08,1.85,1.97.47.89.7,2.06.7,3.49Z"/>
          <path d="M391.66,196.19c0,1.43-.24,2.63-.71,3.61-.48.97-1.15,1.71-2.03,2.2-.88.49-1.91.74-3.1.74h-.15s0-2.34,0-2.34h.41c.68,0,1.25-.13,1.7-.39.45-.26.79-.69,1.02-1.3.23-.61.34-1.44.34-2.51,0-.92-.08-1.66-.24-2.21-.16-.55-.42-.94-.77-1.18-.35-.24-.79-.36-1.31-.36-.75,0-1.29.2-1.63.61s-.61,1.06-.82,1.97l-.69,3.55c-.19.81-.46,1.53-.83,2.16-.37.64-.86,1.13-1.48,1.48s-1.4.53-2.34.53c-.61,0-1.22-.11-1.81-.35s-1.13-.59-1.61-1.08c-.48-.49-.85-1.13-1.14-1.92-.28-.79-.42-1.75-.42-2.89,0-1.41.26-2.58.77-3.49s1.21-1.58,2.08-2.02,1.88-.66,3-.66h.15s0,2.32,0,2.32h-.33c-.7,0-1.28.13-1.75.39-.47.26-.82.69-1.05,1.28s-.34,1.39-.34,2.4c0,.88.08,1.59.25,2.13.17.54.42.94.75,1.18.33.24.76.37,1.29.37.48,0,.87-.09,1.18-.26.31-.17.55-.44.73-.8.18-.36.34-.82.5-1.39l.71-3.53c.2-.97.51-1.77.92-2.42.41-.64.93-1.12,1.56-1.44s1.36-.48,2.2-.48,1.69.21,2.45.63c.76.42,1.38,1.08,1.85,1.97.47.89.7,2.06.7,3.49Z"/>
        </g>
      </g>
      <path d="M201.23,420.79c3.14-.98,6.35-3.55,8.46-7.17.52-.89.94-1.78,1.26-2.67.32.89.75,1.78,1.26,2.67,2.12,3.62,5.32,6.2,8.46,7.16-3.15.97-6.35,3.56-8.46,7.17-.52.89-.94,1.78-1.26,2.67-.32-.89-.74-1.78-1.26-2.67-2.12-3.61-5.32-6.2-8.46-7.17Z"/>
      <path d="M47.51,145.79c3.14-.98,6.35-3.55,8.46-7.17.52-.89.94-1.78,1.26-2.67.32.89.75,1.78,1.26,2.67,2.12,3.62,5.32,6.2,8.46,7.16-3.15.97-6.35,3.56-8.46,7.17-.52.89-.94,1.78-1.26,2.67-.32-.89-.74-1.78-1.26-2.67-2.12-3.61-5.32-6.2-8.46-7.17Z"/>
      <path d="M354.94,145.79c3.14-.98,6.35-3.55,8.46-7.17.52-.89.94-1.78,1.26-2.67.32.89.75,1.78,1.26,2.67,2.12,3.62,5.32,6.2,8.46,7.16-3.15.97-6.35,3.56-8.46,7.17-.52.89-.94,1.78-1.26,2.67-.32-.89-.74-1.78-1.26-2.67-2.12-3.61-5.32-6.2-8.46-7.17Z"/>
    </g>
  </g>
</svg>